@startuml

package "BusinessRules" #fff {
    package "Entity" #EEE {
        class User{
            {field} id: int
            {field} firstName: string
            {field} lastName: string
            {field} email: string
            {field} password: string
            {field} plainPassword: string
            {field} registeredAt: DateTimeInterface
            {field} id: int
        }
        class JobSeeker{
            {field} gradeLevel: int
            {field} activity: string
            {field} presentation: string
            {field} phone: string
            {field} available: bool
            {field} availableForm: DateTimeInterface
            {field} minSalary: int
            {field} maxSalary: int
            {field} location: string
            {field} remote: bool
            {field} remoteOnly: bool
        }
        class Recruiter

        class Offer{
            {field} id: int
            {field} name: string
            {field} companyDescription: string
            {field} jobDescription: string
            {field} missions: string
            {field} tasks: string
            {field} profile: string
            {field} softSkill: string
            {field} minSalary: int
            {field} maxSalary: int
            {field} location: string
            {field} remote: bool
            {field} publishAt : DateTimeInterface
            {field} deleteAt : ?DateTimeInterface

        }
        class Application{
            {field} id: int
            {field} sentAt: DateTimeInterface
            {field} message: strings
            {field} state: strings
            {field} reasonForRefusal: ?string
        }
        class Interest


        class BusinessSector
        class Job
        class Skill
        class WorkExperience
        class EducationalBackground
        class Media
        class Locale
        class LocaleLevel
        class ContractType


        class Notification
        class NotificationModel



        User <|-- JobSeeker
        User <|-- Recruiter

        User "One" --o "Many" Notification: To
        NotificationModel "One" --o "Many" Notification: To


        Recruiter "One" --o "Many" Offer: To
        JobSeeker "One" --o "Many" Application: To

        Offer "One" --* "Many" Application: To
        Offer "Many" *-- "One" Job: To
        Offer "Many" *-- "Many" Skill: To
        Offer "Many" *-- "One" ContractType: To
        Offer "One" o-- "Many" LocaleLevel: To

        JobSeeker "One" --* "Many" Interest: To
        Offer "One" --* "Many" Interest: To


        Job "Many" *--"One" BusinessSector: To
        JobSeeker "Many" *--"One" Job: To
        JobSeeker "Many" *--"Many" Skill: To
        JobSeeker "Many" *--"Many" ContractType: To
        JobSeeker "One" o--"Many" WorkExperience: To
        JobSeeker "One" o--"Many" EducationalBackground: To
        JobSeeker "One" o--"Many" Media: To
        JobSeeker "One" o--"Many" LocaleLevel: To
        Locale "One" --*"Many" LocaleLevel: To


    }

    package "Use case" #EEE{

    }


}
@enduml